<?xml version="1.0" standalone="no"?>
<!DOCTYPE svg PUBLIC "-//W3C//DTD SVG 20010904//EN"
 "http://www.w3.org/TR/2001/REC-SVG-20010904/DTD/svg10.dtd">
<svg version="1.0" xmlns="http://www.w3.org/2000/svg"
 width="785.000000pt" height="785.000000pt" viewBox="0 0 785.000000 785.000000"
 preserveAspectRatio="xMidYMid meet">
<metadata>
Created by potrace 1.14, written by Peter Selinger 2001-2017
</metadata>
<g transform="translate(0.000000,785.000000) scale(0.100000,-0.100000)"
fill="#000000" stroke="none">
<path d="M5010 5748 c-200 -57 -243 -72 -360 -120 -195 -80 -425 -215 -619
-362 -100 -77 -89 -74 -178 -39 -200 81 -361 113 -579 113 -405 0 -785 -128
-1134 -383 -111 -82 -318 -286 -413 -408 -125 -161 -257 -394 -332 -584 -84
-212 -145 -499 -145 -678 0 -604 441 -978 1040 -882 176 29 305 92 432 214
165 157 251 335 352 731 141 553 313 913 584 1228 78 91 91 124 70 186 -23 70
-126 104 -190 62 -51 -33 -202 -221 -294 -366 -176 -274 -305 -592 -415 -1020
-96 -373 -160 -511 -296 -641 -59 -57 -117 -91 -208 -120 -60 -20 -89 -23
-210 -22 -123 1 -149 4 -220 27 -205 69 -330 221 -371 450 -18 104 -18 183 1
315 100 684 618 1332 1235 1544 319 109 675 114 942 13 266 -100 466 -321 568
-625 36 -108 54 -190 74 -346 26 -195 72 -263 245 -355 53 -29 130 -70 171
-92 165 -88 186 -101 219 -134 30 -29 35 -41 39 -92 8 -110 -89 -333 -197
-455 -152 -169 -408 -267 -696 -267 -243 1 -447 68 -606 202 -39 33 -87 65
-106 70 -64 17 -128 -20 -151 -89 -22 -67 15 -129 128 -212 139 -103 295 -172
485 -212 95 -21 420 -18 525 4 256 54 426 142 585 302 130 130 210 268 264
459 62 218 30 370 -106 497 -37 35 -67 53 -237 145 -222 118 -261 142 -278
164 -12 17 -23 63 -33 150 -19 151 -51 283 -100 410 -40 107 -120 254 -171
317 -19 23 -34 44 -34 48 0 4 -29 36 -63 71 -50 50 -61 67 -53 78 14 18 162
122 251 176 163 100 471 240 495 225 6 -4 10 -127 10 -317 0 -276 2 -313 17
-339 27 -45 86 -69 174 -69 185 0 410 -70 564 -174 114 -77 224 -202 283 -321
74 -148 112 -344 93 -480 -16 -116 -14 -175 8 -218 11 -21 58 -74 105 -118 95
-89 97 -96 71 -182 -21 -71 -69 -150 -133 -218 -173 -188 -443 -270 -752 -229
-53 7 -110 10 -125 6 -40 -10 -81 -56 -89 -99 -9 -47 22 -118 57 -134 92 -42
425 -53 572 -19 91 21 219 68 285 104 254 139 443 406 457 644 5 83 4 91 -25
151 -27 55 -62 95 -164 190 -15 14 -18 26 -13 49 11 49 8 259 -5 339 -16 100
-73 268 -122 358 -129 236 -340 419 -601 522 -81 33 -230 68 -349 84 l-48 6 0
342 0 342 -30 37 c-26 31 -85 62 -110 57 -3 -1 -21 -6 -40 -11z"/>
<path d="M3925 3937 c-95 -44 -139 -151 -100 -244 20 -48 41 -71 87 -94 63
-32 146 -21 204 28 56 46 74 157 37 224 -43 76 -156 119 -228 86z"/>
<path d="M5605 3866 c-108 -48 -138 -188 -59 -276 42 -46 89 -64 153 -58 144
14 202 199 95 300 -52 48 -127 62 -189 34z"/>
</g>
</svg>
